<svg width="24" height="24" viewBox="0 0 24 24" fill="none" xmlns="http://www.w3.org/2000/svg">
<path d="M12 24C18.6274 24 24 18.6274 24 12C24 5.37258 18.6274 0 12 0C5.37258 0 0 5.37258 0 12C0 18.6274 5.37258 24 12 24Z" fill="#FCA13A"/>
<path d="M9.90341 17V16.233L12.7841 13.0795C13.1222 12.7102 13.4006 12.3892 13.6193 12.1165C13.8381 11.8409 14 11.5824 14.1051 11.3409C14.2131 11.0966 14.267 10.8409 14.267 10.5739C14.267 10.267 14.1932 10.0014 14.0455 9.77699C13.9006 9.55256 13.7017 9.37926 13.4489 9.2571C13.196 9.13494 12.9119 9.07386 12.5966 9.07386C12.2614 9.07386 11.9688 9.14347 11.7188 9.28267C11.4716 9.41903 11.2798 9.6108 11.1435 9.85795C11.0099 10.1051 10.9432 10.3949 10.9432 10.7273H9.9375C9.9375 10.2159 10.0554 9.76705 10.2912 9.38068C10.527 8.99432 10.848 8.69318 11.2543 8.47727C11.6634 8.26136 12.1222 8.15341 12.6307 8.15341C13.142 8.15341 13.5952 8.26136 13.9901 8.47727C14.3849 8.69318 14.6946 8.98437 14.919 9.35085C15.1435 9.71733 15.2557 10.125 15.2557 10.5739C15.2557 10.8949 15.1974 11.2088 15.081 11.5156C14.9673 11.8196 14.7685 12.1591 14.4844 12.5341C14.2031 12.9062 13.8125 13.3608 13.3125 13.8977L11.3523 15.9943V16.0625H15.4091V17H9.90341Z" fill="white"/>
</svg>
