<svg width="165" height="59" viewBox="0 0 165 59" fill="none" xmlns="http://www.w3.org/2000/svg">
<path d="M66.0893 18.3945H70.3276V38H66.0893V29.8926H58.7065V38H54.4682V18.3945H58.7065V25.9551H66.0893V18.3945ZM74.4018 20.8691V17.0684H78.476V20.8691H74.4018ZM74.4018 38V22.8789H78.4897V38H74.4018ZM94.6088 22.8789H97.2612V36.25C97.2612 38.6107 96.573 40.4701 95.1967 41.8281C93.8204 43.1953 91.9337 43.8789 89.5366 43.8789C87.4858 43.8789 85.7768 43.3867 84.4096 42.4023C83.0424 41.418 82.1856 40.0599 81.8393 38.3281H85.8998C86.1186 38.9753 86.5652 39.4766 87.2397 39.832C87.9233 40.1966 88.6661 40.3789 89.4682 40.3789C90.5346 40.3789 91.4324 40.0553 92.1616 39.4082C92.8907 38.7702 93.2553 37.9134 93.2553 36.8379V36.2637C91.9702 37.166 90.53 37.6172 88.935 37.6172C87.5496 37.6172 86.2781 37.2845 85.1205 36.6191C83.9721 35.9538 83.0652 35.0423 82.3998 33.8848C81.7436 32.7181 81.4155 31.4375 81.4155 30.043C81.4155 28.6576 81.7436 27.3861 82.3998 26.2285C83.0652 25.0618 83.9721 24.1413 85.1205 23.4668C86.2781 22.7923 87.5496 22.4551 88.935 22.4551C90.8946 22.4551 92.5672 23.0977 93.9526 24.3828L94.6088 22.8789ZM89.4135 33.9668C90.5255 33.9668 91.4461 33.5977 92.1752 32.8594C92.9044 32.112 93.269 31.1732 93.269 30.043C93.269 28.9219 92.9044 27.9967 92.1752 27.2676C91.4552 26.5293 90.5346 26.1602 89.4135 26.1602C88.3015 26.1602 87.381 26.5293 86.6518 27.2676C85.9226 27.9967 85.558 28.9219 85.558 30.043C85.558 31.1732 85.9181 32.112 86.6381 32.8594C87.3673 33.5977 88.2924 33.9668 89.4135 33.9668ZM109.853 22.5234C111.557 22.5234 112.906 23.0885 113.9 24.2188C114.902 25.349 115.404 26.8802 115.404 28.8125V38H111.316V29.4961C111.316 28.3477 111.102 27.4954 110.673 26.9395C110.254 26.3835 109.589 26.1055 108.677 26.1055C107.647 26.1055 106.822 26.4609 106.203 27.1719C105.592 27.8737 105.287 28.8353 105.287 30.0566V38H101.199V17.4238H105.287V24.2871C106.517 23.1113 108.039 22.5234 109.853 22.5234ZM126.71 18.3945C128.005 18.3945 129.176 18.6862 130.224 19.2695C131.281 19.8438 132.111 20.6504 132.712 21.6895C133.323 22.7194 133.628 23.8678 133.628 25.1348C133.628 27.0671 132.968 28.6758 131.646 29.9609C130.324 31.237 128.679 31.875 126.71 31.875H123.402V38H119.164V18.3945H126.71ZM126.519 27.9512C127.348 27.9512 128.023 27.6868 128.542 27.1582C129.062 26.6296 129.322 25.9551 129.322 25.1348C129.322 24.3145 129.062 23.6445 128.542 23.125C128.032 22.5964 127.358 22.332 126.519 22.332H123.402V27.9512H126.519ZM144.033 22.7969H145.372V26.6523H143.609C142.46 26.6523 141.636 26.9258 141.134 27.4727C140.642 28.0104 140.396 28.8991 140.396 30.1387V38H136.308V22.8789H138.919L139.644 24.7383C140.683 23.444 142.146 22.7969 144.033 22.7969ZM154.533 38.4238C152.992 38.4238 151.598 38.0775 150.349 37.3848C149.1 36.6921 148.121 35.735 147.41 34.5137C146.708 33.2923 146.357 31.9342 146.357 30.4395C146.357 28.9264 146.708 27.5638 147.41 26.3516C148.121 25.1302 149.1 24.1777 150.349 23.4941C151.598 22.8014 152.992 22.4551 154.533 22.4551C156.064 22.4551 157.454 22.8014 158.703 23.4941C159.951 24.1777 160.931 25.1302 161.642 26.3516C162.353 27.5729 162.708 28.9355 162.708 30.4395C162.708 31.9342 162.353 33.2923 161.642 34.5137C160.931 35.735 159.951 36.6921 158.703 37.3848C157.454 38.0775 156.064 38.4238 154.533 38.4238ZM151.634 33.4336C152.391 34.1992 153.357 34.582 154.533 34.582C155.708 34.582 156.675 34.1992 157.431 33.4336C158.188 32.6589 158.566 31.6608 158.566 30.4395C158.566 29.2181 158.188 28.2246 157.431 27.459C156.675 26.6842 155.708 26.2969 154.533 26.2969C153.357 26.2969 152.391 26.6842 151.634 27.459C150.878 28.2246 150.499 29.2181 150.499 30.4395C150.499 31.6608 150.878 32.6589 151.634 33.4336Z" fill="#435179"/>
<path d="M19.011 58.6611L6.36902 53.02C4.76986 52.3067 3.41154 51.1454 2.45837 49.6765C1.50521 48.2076 0.998028 46.494 0.998047 44.7429V0.000976562L13.106 4.50098C14.8402 5.14567 16.3356 6.30571 17.3912 7.8252C18.4468 9.34468 19.012 11.1508 19.011 13.001V58.6611Z" fill="url(#paint0_linear_3_340)"/>
<path d="M40.425 46.7391L28.6841 41.5001C26.8165 40.6669 25.2304 39.3104 24.1173 37.5948C23.0043 35.8793 22.4119 33.8781 22.412 31.8331V10.6671L33.5281 14.7999C35.5532 15.5518 37.2997 16.9054 38.5331 18.6788C39.7665 20.4523 40.4277 22.5609 40.428 24.7211L40.425 46.7391Z" fill="url(#paint1_linear_3_340)"/>
<defs>
<linearGradient id="paint0_linear_3_340" x1="-0.0106782" y1="-11.4378" x2="39.2089" y2="3.43923" gradientUnits="userSpaceOnUse">
<stop stop-color="#FFB73E"/>
<stop offset="1" stop-color="#EC6B22"/>
</linearGradient>
<linearGradient id="paint1_linear_3_340" x1="13.2238" y1="-5.92602" x2="87.1302" y2="28.7242" gradientUnits="userSpaceOnUse">
<stop stop-color="#9175F9"/>
<stop offset="1" stop-color="#4C30B2"/>
</linearGradient>
</defs>
</svg>
