<svg width="97" height="100" viewBox="0 0 97 100" fill="none" xmlns="http://www.w3.org/2000/svg">
<path d="M29.4049 86.472L51.825 73.443L74.3929 86.472L51.9729 99.501L29.4049 86.472Z" fill="url(#paint0_linear_2611_8)"/>
<path d="M51.8511 64.6429L29.431 77.672L6.86499 64.6429L29.285 51.614L51.8511 64.6429Z" fill="url(#paint1_linear_2611_8)"/>
<path d="M51.8519 64.6431L51.827 73.4431L29.407 86.4721L29.432 77.6721L51.8519 64.6431Z" fill="url(#paint2_linear_2611_8)"/>
<path d="M29.4309 77.6731L29.4059 86.473L6.83997 73.4441L6.86499 64.644L29.4309 77.6731Z" fill="url(#paint3_linear_2611_8)"/>
<path d="M29.5651 77.751L51.92 64.76L51.7841 64.527L29.432 77.517L6.93201 64.527L6.797 64.761L29.297 77.752L29.4301 82.439L29.5651 77.751Z" fill="url(#paint4_radial_2611_8)"/>
<path d="M96.9001 42.4199L74.48 55.449L51.9141 42.4199L74.334 29.391L96.9001 42.4199Z" fill="url(#paint5_linear_2611_8)"/>
<path d="M96.8992 42.42L96.811 73.443L74.3911 86.472L74.479 55.449L96.8992 42.42Z" fill="url(#paint6_linear_2611_8)"/>
<path d="M74.479 55.4479L74.3911 86.471L51.825 73.442L51.9131 42.419L74.479 55.4479Z" fill="url(#paint7_linear_2611_8)"/>
<g opacity="0.8">
<path opacity="0.8" d="M74.4548 64.4701L52.0339 77.499L29.4669 64.4701L51.8879 51.441L74.4548 64.4701Z" fill="url(#paint8_linear_2611_8)"/>
</g>
<path d="M74.455 64.4691L74.3929 86.4691L51.9728 99.498L52.0348 77.498L74.455 64.4691Z" fill="url(#paint9_linear_2611_8)"/>
<path d="M52.0349 77.4981L51.9729 99.4981L29.4059 86.4691L29.4689 64.4691L52.0349 77.4981Z" fill="url(#paint10_linear_2611_8)"/>
<path d="M68.817 67.67L63.193 70.895C61.316 71.967 59.45 73.0561 57.578 74.1361L52.0341 77.3441L46.454 74.1361C44.57 73.0561 42.691 71.967 40.802 70.895L35.141 67.67L29.467 64.4701L35.0751 67.7841L40.698 71.0741C42.571 72.1741 44.4531 73.257 46.3301 74.348L51.9 77.578L52.0341 85.056L52.168 77.578L57.701 74.348C59.566 73.257 61.436 72.1741 63.301 71.0741L68.8871 67.7841L74.4591 64.4701L68.817 67.67Z" fill="white"/>
<path d="M91.2609 45.62L85.6368 48.845C83.7608 49.917 81.8939 51.0061 80.0219 52.0861L74.4789 55.293L68.899 52.0861C67.015 51.0051 65.1369 49.917 63.2479 48.845L57.588 45.621L51.913 42.421L57.5219 45.735L63.1439 49.025C65.0169 50.125 66.899 51.208 68.776 52.299L74.3448 55.5291L74.4789 64.4709L74.6129 55.528L80.1459 52.299C82.0109 51.208 83.881 50.125 85.746 49.025L91.3319 45.735L96.9039 42.421L91.2609 45.62Z" fill="white"/>
<g opacity="0.9">
<path opacity="0.9" d="M89.9481 26.632L74.5341 35.59L59.0189 26.632L74.433 17.674L89.9481 26.632Z" fill="#FFB73E"/>
</g>
<path d="M89.9501 26.632L89.9401 29.932L74.526 38.89L74.536 35.59L89.9501 26.632Z" fill="#FFA338"/>
<path d="M74.535 35.594L74.526 38.894L59.0111 29.937L59.0201 26.637L74.535 35.594Z" fill="#EC6B22"/>
<path d="M86.078 28.843L82.2179 31.072L74.5341 35.512L66.799 31.072L62.9149 28.843L59.015 26.632L62.8771 28.9L66.7501 31.15L74.464 35.629L74.5299 37.592L74.5961 35.629L82.2599 31.15L86.1071 28.9L89.944 26.632L86.078 28.843Z" fill="white"/>
<g opacity="0.8">
<path opacity="0.8" d="M60.6528 40.786L52.6218 45.453L44.5388 40.786L52.5698 36.119L60.6528 40.786Z" fill="#FFB73E"/>
</g>
<path d="M60.647 40.786L60.6379 44.0861L52.6069 48.7531L52.616 45.453L60.647 40.786Z" fill="#FFA338"/>
<path d="M52.613 45.4529L52.604 48.753L44.521 44.086L44.531 40.7859L52.613 45.4529Z" fill="#EC6B22"/>
<path d="M58.6241 41.924L56.6071 43.074L54.5951 44.233L52.618 45.3749L50.6281 44.233L48.6019 43.074C47.2489 42.306 45.896 41.5389 44.535 40.7859C45.868 41.5859 47.2091 42.377 48.5511 43.164L50.567 44.3389L52.5521 45.492L52.618 47.577L52.684 45.492L54.6561 44.3389L56.6561 43.164L58.6561 41.981L60.6471 40.7859L58.6241 41.924Z" fill="white"/>
<g opacity="0.9">
<path opacity="0.9" d="M19.481 63.0081L9.78699 68.6411L0.0299072 63.0081L9.724 57.3751L19.481 63.0081Z" fill="url(#paint11_linear_2611_8)"/>
</g>
<path d="M19.481 63.0071L19.47 66.9911L9.776 72.624L9.78699 68.6401L19.481 63.0071Z" fill="url(#paint12_linear_2611_8)"/>
<path d="M9.78992 68.6401L9.77893 72.624L0.0219727 66.9911L0.032959 63.0071L9.78992 68.6401Z" fill="url(#paint13_linear_2611_8)"/>
<path d="M17.038 64.3811L14.6029 65.7701L12.174 67.17L9.78796 68.5481L7.38794 67.17L4.94299 65.7701C3.30999 64.8431 1.67596 63.9171 0.032959 63.0071C1.64196 63.9751 3.261 64.9281 4.88 65.8781L7.31396 67.2961L9.71399 68.6881L9.79395 71.2051L9.8739 68.6881L12.255 67.2961L14.672 65.8781L17.084 64.4501L19.4839 63.0071L17.038 64.3811Z" fill="white"/>
<g opacity="0.2" filter="url(#filter0_f_2611_8)">
<path d="M74.464 30.516C78.9043 30.516 82.504 28.6203 82.504 26.282C82.504 23.9436 78.9043 22.048 74.464 22.048C70.0236 22.048 66.424 23.9436 66.424 26.282C66.424 28.6203 70.0236 30.516 74.464 30.516Z" fill="#765CE9"/>
</g>
<g opacity="0.7">
<path opacity="0.7" d="M83.51 20.322L74.8899 25.298L67.5449 21.0291L76.1638 16.053L83.51 20.322Z" fill="url(#paint14_linear_2611_8)"/>
</g>
<path d="M83.483 10.417L83.5109 20.317L76.1649 16.048L76.1371 6.14807L83.483 10.417Z" fill="url(#paint15_linear_2611_8)"/>
<path d="M74.891 25.299L67.546 21.03L67.5179 11.1251L74.8629 15.394L74.891 25.299Z" fill="url(#paint16_linear_2611_8)"/>
<path d="M74.8629 15.39L67.5179 11.1221L76.1371 6.146L83.4821 10.4141L74.8629 15.39Z" fill="url(#paint17_linear_2611_8)"/>
<g opacity="0.5" filter="url(#filter1_f_2611_8)">
<path d="M75.777 12.943C78.3048 12.943 80.354 11.8641 80.354 10.533C80.354 9.20204 78.3048 8.12305 75.777 8.12305C73.2491 8.12305 71.2 9.20204 71.2 10.533C71.2 11.8641 73.2491 12.943 75.777 12.943Z" fill="#EFDCF9"/>
</g>
<path d="M75.6709 7.43902C77.5874 7.43902 79.1409 5.88545 79.1409 3.96902C79.1409 2.0526 77.5874 0.499023 75.6709 0.499023C73.7545 0.499023 72.2009 2.0526 72.2009 3.96902C72.2009 5.88545 73.7545 7.43902 75.6709 7.43902Z" fill="url(#paint18_linear_2611_8)"/>
<path style="mix-blend-mode:lighten" d="M79.1449 12.859L76.9869 14.0961L74.8629 15.319C73.6469 14.619 72.436 13.911 71.215 13.219C69.994 12.527 68.755 11.8191 67.515 11.1271C68.7263 11.8604 69.9423 12.5861 71.163 13.3041C72.369 14.0211 73.5831 14.723 74.7931 15.433L74.86 20.845L74.9269 15.4341L77.046 14.207L79.1969 12.9561C80.6269 12.1161 82.0579 11.276 83.4789 10.42C82.0329 11.221 80.5879 12.04 79.1449 12.859Z" fill="url(#paint19_radial_2611_8)"/>
<defs>
<filter id="filter0_f_2611_8" x="62.424" y="18.048" width="24.08" height="16.468" filterUnits="userSpaceOnUse" color-interpolation-filters="sRGB">
<feFlood flood-opacity="0" result="BackgroundImageFix"/>
<feBlend mode="normal" in="SourceGraphic" in2="BackgroundImageFix" result="shape"/>
<feGaussianBlur stdDeviation="2" result="effect1_foregroundBlur_2611_8"/>
</filter>
<filter id="filter1_f_2611_8" x="67.2" y="4.12305" width="17.1541" height="12.82" filterUnits="userSpaceOnUse" color-interpolation-filters="sRGB">
<feFlood flood-opacity="0" result="BackgroundImageFix"/>
<feBlend mode="normal" in="SourceGraphic" in2="BackgroundImageFix" result="shape"/>
<feGaussianBlur stdDeviation="2" result="effect1_foregroundBlur_2611_8"/>
</filter>
<linearGradient id="paint0_linear_2611_8" x1="29.4049" y1="86.472" x2="74.3929" y2="86.472" gradientUnits="userSpaceOnUse">
<stop stop-color="#7FD0FF"/>
<stop offset="1" stop-color="#2F8EED"/>
</linearGradient>
<linearGradient id="paint1_linear_2611_8" x1="18.5" y1="73" x2="38.2898" y2="25.4621" gradientUnits="userSpaceOnUse">
<stop stop-color="#FF8CD4"/>
<stop offset="1" stop-color="#EF54BB"/>
</linearGradient>
<linearGradient id="paint2_linear_2611_8" x1="29.407" y1="75.5576" x2="37.5" y2="82" gradientUnits="userSpaceOnUse">
<stop stop-color="#FF8CD4"/>
<stop offset="1" stop-color="#EF54BB"/>
</linearGradient>
<linearGradient id="paint3_linear_2611_8" x1="11.2904" y1="85.709" x2="15.8162" y2="79.8579" gradientUnits="userSpaceOnUse">
<stop stop-color="#FF8CD4"/>
<stop offset="1" stop-color="#EF54BB"/>
</linearGradient>
<radialGradient id="paint4_radial_2611_8" cx="0" cy="0" r="1" gradientUnits="userSpaceOnUse" gradientTransform="translate(-1093.56 73.483) scale(11.3932 11.392)">
<stop stop-color="white"/>
<stop offset="1" stop-color="#EF54BB"/>
</radialGradient>
<linearGradient id="paint5_linear_2611_8" x1="61.4511" y1="45.5209" x2="110.847" y2="10.2298" gradientUnits="userSpaceOnUse">
<stop stop-color="#9175F9"/>
<stop offset="1" stop-color="#4C30B2"/>
</linearGradient>
<linearGradient id="paint6_linear_2611_8" x1="77.3847" y1="48.1468" x2="104.461" y2="62.0914" gradientUnits="userSpaceOnUse">
<stop stop-color="#9175F9"/>
<stop offset="1" stop-color="#4C30B2"/>
</linearGradient>
<linearGradient id="paint7_linear_2611_8" x1="58.2587" y1="79.2905" x2="79.2785" y2="62.4188" gradientUnits="userSpaceOnUse">
<stop stop-color="#9175F9"/>
<stop offset="1" stop-color="#4C30B2"/>
</linearGradient>
<linearGradient id="paint8_linear_2611_8" x1="29.4669" y1="64.47" x2="74.4548" y2="64.47" gradientUnits="userSpaceOnUse">
<stop stop-color="#7FD0FF"/>
<stop offset="1" stop-color="#2F8EED"/>
</linearGradient>
<linearGradient id="paint9_linear_2611_8" x1="51.9728" y1="81.9836" x2="74.455" y2="81.9836" gradientUnits="userSpaceOnUse">
<stop stop-color="#7FD0FF"/>
<stop offset="1" stop-color="#2F8EED"/>
</linearGradient>
<linearGradient id="paint10_linear_2611_8" x1="29.4059" y1="81.9836" x2="52.0349" y2="81.9836" gradientUnits="userSpaceOnUse">
<stop stop-color="#7FD0FF"/>
<stop offset="1" stop-color="#2F8EED"/>
</linearGradient>
<linearGradient id="paint11_linear_2611_8" x1="0.0299072" y1="63.0081" x2="19.481" y2="63.0081" gradientUnits="userSpaceOnUse">
<stop stop-color="#9175F9"/>
<stop offset="1" stop-color="#4C30B2"/>
</linearGradient>
<linearGradient id="paint12_linear_2611_8" x1="9.776" y1="67.8156" x2="19.481" y2="67.8156" gradientUnits="userSpaceOnUse">
<stop stop-color="#9175F9"/>
<stop offset="1" stop-color="#4C30B2"/>
</linearGradient>
<linearGradient id="paint13_linear_2611_8" x1="0.0219727" y1="67.8156" x2="9.78992" y2="67.8156" gradientUnits="userSpaceOnUse">
<stop stop-color="#9175F9"/>
<stop offset="1" stop-color="#4C30B2"/>
</linearGradient>
<linearGradient id="paint14_linear_2611_8" x1="67.5449" y1="20.6755" x2="83.51" y2="20.6755" gradientUnits="userSpaceOnUse">
<stop stop-color="#9175F9"/>
<stop offset="1" stop-color="#4C30B2"/>
</linearGradient>
<linearGradient id="paint15_linear_2611_8" x1="76.1371" y1="13.2325" x2="83.5109" y2="13.2325" gradientUnits="userSpaceOnUse">
<stop stop-color="#9175F9"/>
<stop offset="1" stop-color="#4C30B2"/>
</linearGradient>
<linearGradient id="paint16_linear_2611_8" x1="67.5179" y1="18.212" x2="74.891" y2="18.212" gradientUnits="userSpaceOnUse">
<stop stop-color="#9175F9"/>
<stop offset="1" stop-color="#4C30B2"/>
</linearGradient>
<linearGradient id="paint17_linear_2611_8" x1="67.5179" y1="10.768" x2="83.4821" y2="10.768" gradientUnits="userSpaceOnUse">
<stop stop-color="#9175F9"/>
<stop offset="1" stop-color="#4C30B2"/>
</linearGradient>
<linearGradient id="paint18_linear_2611_8" x1="81.2576" y1="0.686404" x2="70.6325" y2="6.92546" gradientUnits="userSpaceOnUse">
<stop offset="0.274" stop-color="#FFB73E"/>
<stop offset="1" stop-color="#E229A0"/>
</linearGradient>
<radialGradient id="paint19_radial_2611_8" cx="0" cy="0" r="1" gradientUnits="userSpaceOnUse" gradientTransform="translate(-721.751 15.6325) scale(6.74459 6.74493)">
<stop stop-color="white"/>
<stop offset="1" stop-color="#4C30B2"/>
</radialGradient>
</defs>
</svg>
